<?xml version="1.0" encoding="UTF-8" standalone="no"?>
<!-- Created with Inkscape (http://www.inkscape.org/) -->

<svg
   width="210mm"
   height="297mm"
   viewBox="0 0 210 297"
   version="1.1"
   id="svg1"
   xml:space="preserve"
   inkscape:version="1.3 (0e150ed6c4, 2023-07-21)"
   sodipodi:docname="Logotipo + letreiro.svg"
   xmlns:inkscape="http://www.inkscape.org/namespaces/inkscape"
   xmlns:sodipodi="http://sodipodi.sourceforge.net/DTD/sodipodi-0.dtd"
   xmlns="http://www.w3.org/2000/svg"
   xmlns:svg="http://www.w3.org/2000/svg"><sodipodi:namedview
     id="namedview1"
     pagecolor="#ffffff"
     bordercolor="#000000"
     borderopacity="0.25"
     inkscape:showpageshadow="2"
     inkscape:pageopacity="0.0"
     inkscape:pagecheckerboard="0"
     inkscape:deskcolor="#d1d1d1"
     inkscape:document-units="mm"
     inkscape:zoom="0.70710678"
     inkscape:cx="291.32799"
     inkscape:cy="579.12045"
     inkscape:window-width="1920"
     inkscape:window-height="1009"
     inkscape:window-x="-8"
     inkscape:window-y="-8"
     inkscape:window-maximized="1"
     inkscape:current-layer="layer1"
     showguides="false"
     inkscape:lockguides="false"><sodipodi:guide
       position="123.64368,80.962285"
       orientation="0,-1"
       id="guide36"
       inkscape:locked="false" /><sodipodi:guide
       position="41.704948,77.69349"
       orientation="0,-1"
       id="guide37"
       inkscape:locked="false" /><sodipodi:guide
       position="123.75915,85.353022"
       orientation="0,-1"
       id="guide39"
       inkscape:locked="false" /><sodipodi:guide
       position="24.936979,88.640628"
       orientation="0,-1"
       id="guide41"
       inkscape:locked="false" /><sodipodi:guide
       position="8.8046306,74.579468"
       orientation="0,-1"
       id="guide42"
       inkscape:locked="false" /><sodipodi:guide
       position="62.685578,88.529007"
       orientation="1,0"
       id="guide47"
       inkscape:locked="false" /><sodipodi:guide
       position="65.918455,88.363642"
       orientation="1,0"
       id="guide48"
       inkscape:locked="false" /><sodipodi:guide
       position="101.01295,77.726565"
       orientation="1,0"
       id="guide49"
       inkscape:locked="false" /><sodipodi:guide
       position="108.85052,83.052416"
       orientation="0,-1"
       id="guide50"
       inkscape:locked="false" /><sodipodi:guide
       position="113.37809,85.490432"
       orientation="1,0"
       id="guide51"
       inkscape:locked="false" /><sodipodi:guide
       position="123.15111,75.136227"
       orientation="1,0"
       id="guide52"
       inkscape:locked="false" /><sodipodi:guide
       position="119.87706,74.481417"
       orientation="1,0"
       id="guide53"
       inkscape:locked="false" /><sodipodi:guide
       position="121.30946,75.036836"
       orientation="0,-1"
       id="guide54"
       inkscape:locked="false" /><sodipodi:guide
       position="57.757713,74.785142"
       orientation="1,0"
       id="guide55"
       inkscape:locked="false" /><sodipodi:guide
       position="48.274056,88.177605"
       orientation="0,-1"
       id="guide56"
       inkscape:locked="false" /><sodipodi:guide
       position="58.100845,77.230471"
       orientation="0,-1"
       id="guide57"
       inkscape:locked="false" /><sodipodi:guide
       position="47.864778,88.121796"
       orientation="1,0"
       id="guide58"
       inkscape:locked="false" /><sodipodi:guide
       position="44.840674,88.29646"
       orientation="1,0"
       id="guide59"
       inkscape:locked="false" /><sodipodi:guide
       position="19.756933,88.024645"
       orientation="1,0"
       id="guide60"
       inkscape:locked="false" /><sodipodi:guide
       position="16.486849,88.165204"
       orientation="1,0"
       id="guide61"
       inkscape:locked="false" /><sodipodi:guide
       position="5.7442067,75.206385"
       orientation="1,0"
       id="guide62"
       inkscape:locked="false" /><sodipodi:guide
       position="8.9524849,74.966677"
       orientation="1,0"
       id="guide63"
       inkscape:locked="false" /><sodipodi:guide
       position="25.090344,74.367409"
       orientation="1,0"
       id="guide64"
       inkscape:locked="false" /><sodipodi:guide
       position="28.519328,74.873133"
       orientation="1,0"
       id="guide65"
       inkscape:locked="false" /><sodipodi:guide
       position="35.751475,74.694814"
       orientation="1,0"
       id="guide66"
       inkscape:locked="false" /><sodipodi:guide
       position="39.294466,74.588115"
       orientation="1,0"
       id="guide67"
       inkscape:locked="false" /><sodipodi:guide
       position="113.72068,85.811972"
       orientation="0,-1"
       id="guide68"
       inkscape:locked="false" /><sodipodi:guide
       position="124.0007,78.024219"
       orientation="1,0"
       id="guide69"
       inkscape:locked="false" /><sodipodi:guide
       position="125.22233,78.148243"
       orientation="0,-1"
       id="guide70"
       inkscape:locked="false" /><sodipodi:guide
       position="124.96354,80.503331"
       orientation="0,-1"
       id="guide71"
       inkscape:locked="false" /><sodipodi:guide
       position="169.53177,85.310596"
       orientation="1,0"
       id="guide72"
       inkscape:locked="false" /><sodipodi:guide
       position="162.24746,83.576337"
       orientation="1,0"
       id="guide73"
       inkscape:locked="false" /><sodipodi:guide
       position="169.8811,84.890983"
       orientation="0,-1"
       id="guide74"
       inkscape:locked="false" /><sodipodi:guide
       position="158.99321,88.097964"
       orientation="1,0"
       id="guide75"
       inkscape:locked="false" /><sodipodi:guide
       position="163.31233,79.192249"
       orientation="0,-1"
       id="guide76"
       inkscape:locked="false" /><sodipodi:guide
       position="163.19686,79.648277"
       orientation="0,-1"
       id="guide77"
       inkscape:locked="false" /><sodipodi:guide
       position="163.09082,80.058204"
       orientation="1,0"
       id="guide78"
       inkscape:locked="false" /><sodipodi:guide
       position="162.9978,82.071519"
       orientation="0,-1"
       id="guide79"
       inkscape:locked="false" /><sodipodi:guide
       position="163.14863,81.608323"
       orientation="0,-1"
       id="guide80"
       inkscape:locked="false" /><sodipodi:guide
       position="182.41574,74.973242"
       orientation="1,0"
       id="guide81"
       inkscape:locked="false" /><sodipodi:guide
       position="185.62174,74.954641"
       orientation="1,0"
       id="guide82"
       inkscape:locked="false" /><sodipodi:guide
       position="177.13058,85.464106"
       orientation="1,0"
       id="guide83"
       inkscape:locked="false" /><sodipodi:guide
       position="190.8762,88.47733"
       orientation="1,0"
       id="guide84"
       inkscape:locked="false" /><sodipodi:guide
       position="162.24972,81.090908"
       orientation="1,0"
       id="guide86"
       inkscape:locked="false" /></sodipodi:namedview><defs
     id="defs1" /><g
     inkscape:label="Camada 1"
     inkscape:groupmode="layer"
     id="layer1"><rect
       style="opacity:1;fill:#13293e;fill-opacity:1;stroke:none;stroke-width:0.102416;stroke-opacity:1"
       id="rect34"
       width="209.9135"
       height="249.20212"
       x="0.093544364"
       y="17.960512" /><path
       id="path1"
       style="opacity:1;fill:#f66b0e;fill-opacity:1;stroke-width:6.84599"
       d="m 128.66034,88.769529 -0.0646,61.155951 -60.187541,-60.316721 -0.129191,22.990311 -15.950964,-16.144741 -0.0646,95.447911 22.86062,0.0646 0.06459,-62.31868 60.381326,61.86651 -0.12919,-24.34632 15.95148,15.62799 -0.19379,-93.897621 z m 6.60115,6.67143 h 9.22424 v 70.870601 l -9.13277,-9.40666 z m -60.048528,10.525441 53.609648,53.70112 -0.13695,15.06885 -53.518173,-55.00233 z m -15.982487,7.14634 9.178768,9.42991 -0.09147,62.58275 -9.132776,0.091 z" /><path
       style="opacity:1;fill:#f66b0e;fill-opacity:1;stroke-width:6.84599"
       d="m 5.7993541,221.99654 0.091328,-12.375"
       id="path4" /><path
       style="opacity:1;fill:#f66b0e;fill-opacity:1;stroke-width:6.84599"
       d="m 5.7993541,221.99654 0.091328,-12.375"
       id="path5" /><path
       style="opacity:1;fill:#f66b0e;fill-opacity:1;stroke-width:6.84599"
       d="m 7.8085793,215.12407 1.4155904,2.21472"
       id="path6" /><path
       id="path10"
       style="opacity:1;fill:#f66b0e;fill-opacity:1;stroke:none;stroke-width:0.1;stroke-dasharray:none;stroke-opacity:1"
       d="m 37.258708,208.36609 -4.346475,0.004 c -4.986027,0.0277 -7.75238,2.28495 -7.81454,5.6658 l -0.0054,7.92576 c -2.22e-4,0.23659 0.05319,0.45803 0.379009,0.45813 l 2.685107,-6.6e-4 c 0.242016,3.5e-4 0.365324,-0.25093 0.361512,-0.45541 l 0.0018,-2.6468 7.233667,0.003 -0.0038,2.64484 c 5.96e-4,0.17226 0.08591,0.455 0.364011,0.45413 l 2.76729,7.3e-4 c 0.280322,-0.008 0.413013,-0.16549 0.41272,-0.45791 l -0.0061,-11.91978 c 0.01411,-1.35005 -0.954969,-1.67573 -2.02867,-1.67583 z m -5.566586,3.2675 4.092774,0.008 0.01654,4.34082 -7.325651,-0.016 v -1.73633 c 0.03289,-0.88942 0.92635,-2.55865 3.216341,-2.59623 z"
       sodipodi:nodetypes="ccccccccccccccccccccccc" /><path
       style="opacity:1;fill:#f66b0e;fill-opacity:1;stroke:none;stroke-width:0.1;stroke-dasharray:none;stroke-opacity:1"
       d="m 44.866202,220.27352 c 0.0068,1.27773 0.243086,2.13024 1.537636,2.14719 l 10.797839,10e-4 c 0.361525,0.004 0.556981,-0.18932 0.551909,-0.45499 l 0.0036,-2.20337 c 9.66e-4,-0.21172 -0.100313,-0.4565 -0.35406,-0.45681 l -9.237005,-0.003 c -0.21895,-9.4e-4 -0.30004,-0.10894 -0.298629,-0.30578 l -0.0021,-10.17359 c -0.0012,-0.16861 -0.126363,-0.46546 -0.358109,-0.46482 l -2.319062,-0.001 c -0.210814,-1.3e-4 -0.348308,0.30066 -0.347324,0.46176 z"
       id="path16"
       sodipodi:nodetypes="ccccccccccccc" /><path
       style="fill:#f66b0e;fill-opacity:1;stroke:none;stroke-width:0.1"
       d="m 65.919222,221.96608 c -0.0016,0.20151 -0.143122,0.45745 -0.449972,0.4531 l -2.337101,0.003 c -0.252961,-0.003 -0.446833,-0.25403 -0.44835,-0.45804 l 7.66e-4,-13.14514 c -5.06e-4,-0.22149 0.191494,-0.4626 0.464026,-0.46091 l 2.436985,-3e-5 c 0.201636,9.3e-4 0.332506,0.24947 0.332823,0.46406 z"
       id="path2"
       sodipodi:nodetypes="ccccccccc" /><path
       style="fill:#ffffff;fill-opacity:1;stroke:none;stroke-width:0.1;stroke-opacity:1"
       d="m 101.01358,221.95732 c -0.007,0.27938 0.0561,0.47649 0.50866,0.46656 l 8.8369,-8.5e-4 c 5.18949,0.091 6.28601,-8.42949 -0.0746,-8.47434 l -4.43075,0.002 c -2.34425,-0.0133 -2.47236,-2.32093 0.1289,-2.31746 l 6.72537,0.0111 c 0.41125,0.006 0.66934,-0.25547 0.66779,-0.46268 l -8e-4,-2.35782 c 8e-5,-0.29234 -0.20075,-0.45993 -0.4831,-0.46438 l -7.54888,-0.025 c -5.25632,0.0787 -6.723928,8.56593 1.07365,8.50056 l 3.76336,0.0225 c 2.31974,-0.0356 2.32839,2.40024 -0.12453,2.44964 l -8.56079,-6.3e-4 c -0.28671,-0.004 -0.48227,0.17166 -0.48215,0.45474 z"
       id="path3"
       sodipodi:nodetypes="ccccccccccccccccc" /><path
       style="fill:#ffffff;fill-opacity:1;stroke:none;stroke-width:0.1;stroke-opacity:1"
       d="m 122.67668,222.42039 c 0.25695,0.002 0.47562,-0.19121 0.47072,-0.4543 l 0.016,-9.95373 c 0.003,-0.29256 0.28251,-0.36843 0.51551,-0.36623 l 5.15436,-0.01 c 2.7091,-0.005 2.49195,4.35386 0.0772,4.39177 l -4.50017,0.009 c -0.22813,-0.001 -0.40888,0.15154 -0.40755,0.45894 l -0.003,2.35796 c -0.002,0.1986 0.16734,0.45246 0.38158,0.45116 l 4.34748,-0.002 c 6.63057,-0.0122 6.76926,-11.00067 0.23461,-10.95778 l -5.00462,-0.0124 c -2.2574,0.0324 -3.99751,1.34518 -4.04287,4.57034 l -0.0355,9.06976 c -0.002,0.14209 0.14639,0.44617 0.42813,0.44735 z"
       id="path8"
       sodipodi:nodetypes="ccccccccccccccccc" /><path
       id="path20"
       style="fill:#ffffff;fill-opacity:1;stroke:none;stroke-width:0.1;stroke-opacity:1"
       d="M 147.29075 208.30667 L 144.56534 208.34387 C 141.15613 208.35187 138.57007 210.87341 138.58379 213.62624 L 138.58172 216.01214 C 138.55772 219.40574 140.851 222.33899 144.5612 222.37816 L 147.27835 222.40141 C 150.71168 222.40641 153.19384 219.92407 153.26093 215.9987 L 153.2568 213.65776 C 153.2538 210.24526 150.41396 208.32665 147.29075 208.30667 z M 146.75383 211.07239 C 148.65141 211.08453 150.37642 212.25 150.37842 214.32335 L 150.38049 215.74549 C 150.33973 218.13045 148.83208 219.63921 146.74608 219.63621 L 145.09554 219.62174 C 142.84131 219.59794 141.44808 217.81561 141.46268 215.75376 L 141.46372 214.30423 C 141.45538 212.63168 143.02678 211.10013 145.09812 211.09513 L 146.75383 211.07239 z " /><path
       style="fill:#ffffff;fill-opacity:1;stroke:none;stroke-width:0.1;stroke-opacity:1"
       d="m 159.37839,222.41876 2.46186,8e-5 c 0.30606,5.8e-4 0.41009,-0.16299 0.40723,-0.45616 l -4.8e-4,-9.85573 c 0.002,-0.33815 0.1648,-0.45984 0.41494,-0.46011 l 6.46265,-7.7e-4 c 0.24332,-0.002 0.40878,0.10578 0.4074,0.46502 l -0.003,1.46801 c -0.008,0.54814 -0.058,1.3502 -1.48166,1.34812 l -4.47451,-0.001 c -0.31094,-0.002 -0.49165,0.17874 -0.48826,0.46789 l 0.002,1.95523 c -0.003,0.20706 0.12161,0.45572 0.4686,0.45772 h 0.66263 l 4.15236,4.15486 c 0.38059,0.33101 0.6428,0.47293 1.16168,0.455 l 3.71602,1.8e-4 -4.32946,-4.45848 c 3.1383,-0.90805 3.74379,-2.62469 3.75493,-4.32642 l 0.004,-2.2246 c -0.003,-2.34014 -2.23694,-3.06157 -3.96484,-3.06931 l -7.89503,0.0252 c -0.72839,-0.009 -1.82266,0.39263 -1.82386,1.36361 l 1.6e-4,12.23405 c 0.003,0.24944 0.1067,0.45787 0.3849,0.45815 z"
       id="path25"
       sodipodi:nodetypes="cccccccccccccccccccccccccc" /><path
       style="fill:#ffffff;fill-opacity:1;stroke:none;stroke-width:0.1;stroke-opacity:1"
       d="m 182.81925,222.41845 2.42526,0.001 c 0.3006,-0.001 0.3775,-0.21759 0.37668,-0.45786 l 0.003,-10.3175 4.81587,0.002 c 0.39221,-0.002 0.43587,-0.2449 0.43691,-0.45684 l -0.002,-2.36989 c 0.001,-0.26316 -0.1661,-0.45888 -0.37867,-0.46064 l -12.92884,-1.8e-4 c -0.26035,0.003 -0.43585,0.19026 -0.43617,0.46386 l -0.002,2.36574 c -9.7e-4,0.20703 0.0882,0.46007 0.42205,0.45602 h 4.86439 l -9.9e-4,10.31781 c 0.001,0.23276 0.0314,0.4586 0.40294,0.45675 z"
       id="path33"
       sodipodi:nodetypes="cccccccccccccccc" /><path
       style="opacity:1;fill:#f66b0e;fill-opacity:1;stroke:none;stroke-width:0.1;stroke-dasharray:none;stroke-opacity:1"
       d="m 5.7811019,210.15491 c 0.01964,-1.3 0.993848,-1.81558 1.698202,-1.80475 0.869256,0.0134 1.8298749,1.22969 1.8505659,1.24956 0.04357,0.0653 4.6319992,4.94982 7.1457822,7.63608 l 0.01056,-8.41152 c -2.93e-4,-0.20573 0.245267,-0.46297 0.502685,-0.46586 l 2.387498,-0.002 c 0.192876,3.2e-4 0.381382,0.252 0.381117,0.46657 l -0.01499,12.15695 c -0.025,1.63057 -2.313772,1.88038 -3.390377,0.75409 l -7.3645001,-7.82424 -0.034868,8.05318 c -0.00239,0.28351 -0.2104184,0.45891 -0.4404284,0.45815 l -2.457248,-0.001 c -0.1953851,-9.3e-4 -0.3106729,-0.22359 -0.3091475,-0.45867 z"
       id="path44"
       sodipodi:nodetypes="cscccccscccccccc" /><path
       style="opacity:1;fill:#f66b0e;fill-opacity:1;stroke:none;stroke-width:0.1;stroke-dasharray:none;stroke-opacity:1"
       d="m 71.844252,210.15491 c 0.01964,-1.3 0.993848,-1.81558 1.698202,-1.80475 0.869256,0.0134 1.829875,1.22969 1.850566,1.24956 0.04357,0.0653 4.631999,4.94982 7.145782,7.63608 l 0.01056,-8.41152 c -2.93e-4,-0.20573 0.245267,-0.46297 0.502685,-0.46586 l 2.387498,-0.002 c 0.192876,3.2e-4 0.381382,0.252 0.381117,0.46657 l -0.01499,12.15695 c -0.025,1.63057 -2.313772,1.88038 -3.390377,0.75409 l -7.3645,-7.82424 -0.03487,8.05318 c -0.0024,0.28351 -0.210418,0.45891 -0.440428,0.45815 l -2.457248,-0.001 c -0.195385,-9.3e-4 -0.310673,-0.22359 -0.309148,-0.45867 z"
       id="path67"
       sodipodi:nodetypes="cscccccscccccccc" /><path
       style="fill:#ffffff;fill-opacity:1;stroke:none;stroke-width:0.1;stroke-opacity:1"
       d="m 195.30446,221.95732 c -0.007,0.27938 0.0561,0.47649 0.50866,0.46656 l 8.8369,-8.5e-4 c 5.18949,0.091 6.28601,-8.42949 -0.0746,-8.47434 l -4.43075,0.002 c -2.34425,-0.0133 -2.47236,-2.32093 0.1289,-2.31746 l 6.72537,0.0111 c 0.41125,0.006 0.66934,-0.25547 0.66779,-0.46268 l -8e-4,-2.35782 c 8e-5,-0.29234 -0.20075,-0.45993 -0.4831,-0.46438 l -7.54888,-0.025 c -5.25632,0.0787 -6.72392,8.56593 1.07365,8.50056 l 3.76336,0.0225 c 2.31974,-0.0356 2.32839,2.40024 -0.12453,2.44964 l -8.56079,-6.3e-4 c -0.28671,-0.004 -0.48227,0.17166 -0.48215,0.45474 z"
       id="path84"
       sodipodi:nodetypes="ccccccccccccccccc" /></g></svg>
